<svg xmlns="http://www.w3.org/2000/svg" xmlns:xlink="http://www.w3.org/1999/xlink" width="1024" zoomAndPan="magnify" viewBox="0 0 768 767.999994" height="1024" preserveAspectRatio="xMidYMid meet" version="1.0"><defs><clipPath id="82b07eb4c4"><path d="M 88.066406 189 L 644 189 L 644 744.578125 L 88.066406 744.578125 Z M 88.066406 189 " clip-rule="nonzero"/></clipPath><clipPath id="a556e355ba"><path d="M 359 189 L 373 189 L 373 744.578125 L 359 744.578125 Z M 359 189 " clip-rule="nonzero"/></clipPath><clipPath id="64e621b7bc"><path d="M 430 23.078125 L 679 23.078125 L 679 308 L 430 308 Z M 430 23.078125 " clip-rule="nonzero"/></clipPath><clipPath id="32629fc5bc"><path d="M 430 23.078125 L 445 23.078125 L 445 308 L 430 308 Z M 430 23.078125 " clip-rule="nonzero"/></clipPath></defs><path fill="#100f0d" d="M 243.773438 317.238281 C 235.859375 317.238281 229.417969 323.679688 229.417969 331.589844 C 229.417969 339.5 235.859375 345.941406 243.773438 345.941406 C 251.691406 345.941406 258.128906 339.5 258.128906 331.589844 C 258.128906 323.679688 251.691406 317.238281 243.773438 317.238281 Z M 243.773438 358.984375 C 228.664062 358.984375 216.371094 346.695312 216.371094 331.589844 C 216.371094 316.484375 228.664062 304.199219 243.773438 304.199219 C 258.882812 304.199219 271.175781 316.484375 271.175781 331.589844 C 271.175781 346.695312 258.882812 358.984375 243.773438 358.984375 " fill-opacity="1" fill-rule="nonzero"/><path fill="#100f0d" d="M 253.910156 459.710938 C 245.996094 459.710938 239.554688 466.144531 239.554688 474.0625 C 239.554688 481.972656 245.996094 488.40625 253.910156 488.40625 C 261.824219 488.40625 268.265625 481.972656 268.265625 474.0625 C 268.265625 466.144531 261.824219 459.710938 253.910156 459.710938 Z M 253.910156 501.453125 C 238.800781 501.453125 226.507812 489.164062 226.507812 474.0625 C 226.507812 458.953125 238.800781 446.660156 253.910156 446.660156 C 269.019531 446.660156 281.3125 458.953125 281.3125 474.0625 C 281.3125 489.164062 269.019531 501.453125 253.910156 501.453125 " fill-opacity="1" fill-rule="nonzero"/><path fill="#100f0d" d="M 321.367188 635.542969 C 313.449219 635.542969 307.011719 641.976562 307.011719 649.890625 C 307.011719 657.804688 313.449219 664.246094 321.367188 664.246094 C 329.28125 664.246094 335.722656 657.804688 335.722656 649.890625 C 335.722656 641.976562 329.28125 635.542969 321.367188 635.542969 Z M 321.367188 677.289062 C 306.253906 677.289062 293.960938 664.996094 293.960938 649.890625 C 293.960938 634.785156 306.253906 622.492188 321.367188 622.492188 C 336.476562 622.492188 348.769531 634.785156 348.769531 649.890625 C 348.769531 664.996094 336.476562 677.289062 321.367188 677.289062 " fill-opacity="1" fill-rule="nonzero"/><path fill="#100f0d" d="M 309.589844 529.960938 C 301.671875 529.960938 295.234375 536.402344 295.234375 544.3125 C 295.234375 552.222656 301.671875 558.660156 309.589844 558.660156 C 317.503906 558.660156 323.941406 552.222656 323.941406 544.3125 C 323.941406 536.402344 317.503906 529.960938 309.589844 529.960938 Z M 309.589844 571.703125 C 294.476562 571.703125 282.183594 559.417969 282.183594 544.3125 C 282.183594 529.207031 294.476562 516.917969 309.589844 516.917969 C 324.699219 516.917969 336.992188 529.207031 336.992188 544.3125 C 336.992188 559.417969 324.699219 571.703125 309.589844 571.703125 " fill-opacity="1" fill-rule="nonzero"/><path fill="#100f0d" d="M 456.773438 550.832031 C 448.859375 550.832031 442.417969 557.273438 442.417969 565.183594 C 442.417969 573.09375 448.859375 579.535156 456.773438 579.535156 C 464.691406 579.535156 471.128906 573.09375 471.128906 565.183594 C 471.128906 557.273438 464.691406 550.832031 456.773438 550.832031 Z M 456.773438 592.578125 C 441.664062 592.578125 429.371094 580.292969 429.371094 565.183594 C 429.371094 550.082031 441.664062 537.792969 456.773438 537.792969 C 471.886719 537.792969 484.179688 550.082031 484.179688 565.183594 C 484.179688 580.292969 471.886719 592.578125 456.773438 592.578125 " fill-opacity="1" fill-rule="nonzero"/><path fill="#100f0d" d="M 321.367188 291.117188 C 318.46875 291.117188 316.113281 293.472656 316.113281 296.367188 C 316.113281 299.265625 318.46875 301.621094 321.367188 301.621094 C 324.265625 301.621094 326.621094 299.265625 326.621094 296.367188 C 326.621094 293.472656 324.265625 291.117188 321.367188 291.117188 Z M 321.367188 314.664062 C 311.273438 314.664062 303.0625 306.457031 303.0625 296.367188 C 303.0625 286.28125 311.273438 278.070312 321.367188 278.070312 C 331.460938 278.070312 339.667969 286.28125 339.667969 296.367188 C 339.667969 306.457031 331.460938 314.664062 321.367188 314.664062 " fill-opacity="1" fill-rule="nonzero"/><path fill="#100f0d" d="M 415.015625 635.542969 C 412.121094 635.542969 409.761719 637.898438 409.761719 640.796875 C 409.761719 643.6875 412.121094 646.046875 415.015625 646.046875 C 417.914062 646.046875 420.269531 643.6875 420.269531 640.796875 C 420.269531 637.898438 417.914062 635.542969 415.015625 635.542969 Z M 415.015625 659.09375 C 404.925781 659.09375 396.714844 650.878906 396.714844 640.796875 C 396.714844 630.703125 404.925781 622.492188 415.015625 622.492188 C 425.109375 622.492188 433.316406 630.703125 433.316406 640.796875 C 433.316406 650.878906 425.109375 659.09375 415.015625 659.09375 " fill-opacity="1" fill-rule="nonzero"/><path fill="#100f0d" d="M 255.550781 597.359375 C 252.65625 597.359375 250.296875 599.714844 250.296875 602.609375 C 250.296875 605.507812 252.65625 607.863281 255.550781 607.863281 C 258.449219 607.863281 260.804688 605.507812 260.804688 602.609375 C 260.804688 599.714844 258.449219 597.359375 255.550781 597.359375 Z M 255.550781 620.90625 C 245.460938 620.90625 237.25 612.699219 237.25 602.609375 C 237.25 592.523438 245.460938 584.3125 255.550781 584.3125 C 265.644531 584.3125 273.855469 592.523438 273.855469 602.609375 C 273.855469 612.699219 265.644531 620.90625 255.550781 620.90625 " fill-opacity="1" fill-rule="nonzero"/><path fill="#100f0d" d="M 186.933594 513.230469 C 184.035156 513.230469 181.679688 515.585938 181.679688 518.480469 C 181.679688 521.378906 184.035156 523.734375 186.933594 523.734375 C 189.832031 523.734375 192.1875 521.378906 192.1875 518.480469 C 192.1875 515.585938 189.832031 513.230469 186.933594 513.230469 Z M 186.933594 536.777344 C 176.84375 536.777344 168.632812 528.570312 168.632812 518.480469 C 168.632812 508.394531 176.84375 500.183594 186.933594 500.183594 C 197.027344 500.183594 205.238281 508.394531 205.238281 518.480469 C 205.238281 528.570312 197.027344 536.777344 186.933594 536.777344 " fill-opacity="1" fill-rule="nonzero"/><path fill="#100f0d" d="M 186.933594 413.144531 C 184.035156 413.144531 181.679688 415.5 181.679688 418.398438 C 181.679688 421.292969 184.035156 423.648438 186.933594 423.648438 C 189.832031 423.648438 192.1875 421.292969 192.1875 418.398438 C 192.1875 415.5 189.832031 413.144531 186.933594 413.144531 Z M 186.933594 436.695312 C 176.84375 436.695312 168.628906 428.484375 168.628906 418.398438 C 168.628906 408.308594 176.84375 400.097656 186.933594 400.097656 C 197.027344 400.097656 205.238281 408.308594 205.238281 418.398438 C 205.238281 428.484375 197.027344 436.695312 186.933594 436.695312 " fill-opacity="1" fill-rule="nonzero"/><path fill="#100f0d" d="M 333.144531 371.398438 C 330.246094 371.398438 327.890625 373.753906 327.890625 376.648438 C 327.890625 379.546875 330.246094 381.902344 333.144531 381.902344 C 336.042969 381.902344 338.398438 379.546875 338.398438 376.648438 C 338.398438 373.753906 336.042969 371.398438 333.144531 371.398438 Z M 333.144531 394.945312 C 323.054688 394.945312 314.84375 386.738281 314.84375 376.648438 C 314.84375 366.5625 323.054688 358.351562 333.144531 358.351562 C 343.238281 358.351562 351.445312 366.5625 351.445312 376.648438 C 351.445312 386.738281 343.238281 394.945312 333.144531 394.945312 " fill-opacity="1" fill-rule="nonzero"/><g clip-path="url(#82b07eb4c4)"><path fill="#100f0d" d="M 365.800781 744.589844 C 328.355469 744.589844 292 737.25 257.746094 722.761719 C 224.683594 708.785156 195.007812 688.78125 169.53125 663.308594 C 152.28125 646.066406 137.421875 626.738281 125.375 605.871094 C 119.675781 596.019531 114.527344 585.675781 110.066406 575.125 C 95.578125 540.886719 88.234375 504.539062 88.234375 467.101562 C 88.234375 429.660156 95.578125 393.316406 110.066406 359.078125 C 114.527344 348.53125 119.675781 338.183594 125.375 328.328125 C 137.421875 307.460938 152.28125 288.140625 169.53125 270.890625 C 195.007812 245.417969 224.683594 225.414062 257.746094 211.4375 C 292 196.957031 328.355469 189.613281 365.800781 189.613281 C 369.40625 189.613281 372.324219 192.535156 372.324219 196.136719 C 372.324219 199.738281 369.40625 202.65625 365.800781 202.65625 C 330.113281 202.65625 295.46875 209.65625 262.828125 223.453125 C 231.324219 236.769531 203.039062 255.835938 178.761719 280.117188 C 162.3125 296.554688 148.15625 314.96875 136.671875 334.855469 C 131.242188 344.242188 126.335938 354.101562 122.085938 364.152344 C 108.28125 396.78125 101.28125 431.414062 101.28125 467.101562 C 101.28125 502.785156 108.28125 537.421875 122.085938 570.046875 C 126.335938 580.097656 131.242188 589.957031 136.671875 599.34375 C 148.152344 619.230469 162.3125 637.644531 178.761719 654.089844 C 203.039062 678.363281 231.324219 697.429688 262.828125 710.746094 C 295.46875 724.550781 330.113281 731.542969 365.800781 731.542969 C 401.492188 731.542969 436.136719 724.550781 468.777344 710.75 C 500.28125 697.429688 528.5625 678.363281 552.84375 654.089844 C 569.289062 637.644531 583.453125 619.230469 594.929688 599.351562 C 600.363281 589.953125 605.269531 580.097656 609.515625 570.046875 C 623.328125 537.421875 630.320312 502.785156 630.320312 467.101562 C 630.320312 431.417969 623.328125 396.78125 609.523438 364.160156 C 605.269531 354.105469 600.363281 344.246094 594.929688 334.855469 C 593.132812 331.734375 594.199219 327.75 597.320312 325.945312 C 600.4375 324.140625 604.425781 325.210938 606.234375 328.328125 C 611.929688 338.1875 617.082031 348.53125 621.539062 359.078125 C 636.027344 393.316406 643.371094 429.660156 643.371094 467.101562 C 643.371094 504.539062 636.027344 540.886719 621.539062 575.125 C 617.082031 585.667969 611.929688 596.019531 606.234375 605.871094 C 594.179688 626.738281 579.324219 646.066406 562.070312 663.308594 C 536.597656 688.78125 506.921875 708.785156 473.855469 722.761719 C 439.605469 737.25 403.246094 744.589844 365.800781 744.589844 " fill-opacity="1" fill-rule="nonzero"/></g><path fill="#100f0d" d="M 365.800781 704.449219 C 323.390625 704.449219 281.761719 693.132812 245.417969 671.714844 C 210.144531 650.929688 180.664062 621.222656 160.164062 585.792969 C 139.375 549.878906 128.382812 508.832031 128.382812 467.101562 C 128.382812 425.363281 139.375 384.324219 160.164062 348.40625 C 180.664062 312.984375 210.144531 283.269531 245.417969 262.484375 C 281.761719 241.070312 323.390625 229.75 365.800781 229.75 C 369.40625 229.75 372.324219 232.675781 372.324219 236.277344 C 372.324219 239.878906 369.40625 242.796875 365.800781 242.796875 C 285.957031 242.796875 211.488281 285.769531 171.457031 354.9375 C 151.816406 388.875 141.433594 427.65625 141.433594 467.101562 C 141.433594 506.542969 151.816406 545.332031 171.457031 579.261719 C 211.488281 648.433594 285.957031 691.402344 365.800781 691.402344 C 445.648438 691.402344 520.117188 648.433594 560.148438 579.261719 C 579.792969 545.332031 590.167969 506.542969 590.167969 467.101562 C 590.167969 427.65625 579.792969 388.875 560.148438 354.9375 C 558.34375 351.820312 559.40625 347.832031 562.527344 346.027344 C 565.644531 344.222656 569.632812 345.289062 571.441406 348.40625 C 592.230469 384.324219 603.21875 425.363281 603.21875 467.101562 C 603.21875 508.832031 592.230469 549.882812 571.441406 585.800781 C 550.9375 621.222656 521.460938 650.929688 486.1875 671.714844 C 449.84375 693.132812 408.214844 704.449219 365.800781 704.449219 " fill-opacity="1" fill-rule="nonzero"/><g clip-path="url(#a556e355ba)"><path fill="#100f0d" d="M 365.800781 744.589844 C 362.199219 744.589844 359.277344 741.667969 359.277344 738.070312 L 359.277344 196.136719 C 359.277344 192.535156 362.199219 189.613281 365.800781 189.613281 C 369.40625 189.613281 372.324219 192.535156 372.324219 196.136719 L 372.324219 738.070312 C 372.324219 741.667969 369.40625 744.589844 365.800781 744.589844 " fill-opacity="1" fill-rule="nonzero"/></g><path fill="#100f0d" d="M 600.574219 609.136719 C 599.46875 609.136719 598.351562 608.851562 597.320312 608.257812 L 562.53125 588.175781 L 127.757812 337.238281 C 124.640625 335.4375 123.570312 331.449219 125.375 328.328125 C 127.175781 325.210938 131.164062 324.140625 134.285156 325.945312 L 169.074219 346.023438 L 569.054688 576.878906 L 603.839844 596.964844 C 606.964844 598.765625 608.035156 602.753906 606.234375 605.871094 C 605.023438 607.964844 602.828125 609.136719 600.574219 609.136719 " fill-opacity="1" fill-rule="nonzero"/><path fill="#100f0d" d="M 131.027344 609.136719 C 128.773438 609.136719 126.582031 607.964844 125.375 605.871094 C 123.570312 602.753906 124.640625 598.765625 127.757812 596.964844 L 162.550781 576.878906 L 562.53125 346.023438 L 597.320312 325.945312 C 600.4375 324.140625 604.425781 325.210938 606.234375 328.328125 C 608.035156 331.449219 606.964844 335.4375 603.839844 337.238281 L 134.285156 608.257812 C 133.257812 608.851562 132.136719 609.136719 131.027344 609.136719 " fill-opacity="1" fill-rule="nonzero"/><path fill="#100f0d" d="M 532.945312 404.046875 C 525.023438 404.046875 518.589844 410.480469 518.589844 418.398438 C 518.589844 426.308594 525.023438 432.746094 532.945312 432.746094 C 540.855469 432.746094 547.296875 426.308594 547.296875 418.398438 C 547.296875 410.480469 540.855469 404.046875 532.945312 404.046875 Z M 532.945312 445.792969 C 517.832031 445.792969 505.535156 433.5 505.535156 418.398438 C 505.535156 403.289062 517.832031 391 532.945312 391 C 548.050781 391 560.34375 403.289062 560.34375 418.398438 C 560.34375 433.5 548.050781 445.792969 532.945312 445.792969 " fill-opacity="1" fill-rule="nonzero"/><path fill="#100f0d" d="M 473.410156 450.074219 C 470.511719 450.074219 468.15625 452.429688 468.15625 455.324219 C 468.15625 458.222656 470.511719 460.578125 473.410156 460.578125 C 476.308594 460.578125 478.664062 458.222656 478.664062 455.324219 C 478.664062 452.429688 476.308594 450.074219 473.410156 450.074219 Z M 473.410156 473.621094 C 463.316406 473.621094 455.109375 465.414062 455.109375 455.324219 C 455.109375 445.238281 463.316406 437.027344 473.410156 437.027344 C 483.503906 437.027344 491.710938 445.238281 491.710938 455.324219 C 491.710938 465.414062 483.503906 473.621094 473.410156 473.621094 " fill-opacity="1" fill-rule="nonzero"/><path fill="#100f0d" d="M 532.945312 489.679688 C 530.046875 489.679688 527.6875 492.035156 527.6875 494.933594 C 527.6875 497.828125 530.046875 500.183594 532.945312 500.183594 C 535.835938 500.183594 538.195312 497.828125 538.195312 494.933594 C 538.195312 492.035156 535.835938 489.679688 532.945312 489.679688 Z M 532.945312 513.230469 C 522.851562 513.230469 514.640625 505.019531 514.640625 494.933594 C 514.640625 484.84375 522.851562 476.636719 532.945312 476.636719 C 543.039062 476.636719 551.246094 484.84375 551.246094 494.933594 C 551.246094 505.019531 543.039062 513.230469 532.945312 513.230469 " fill-opacity="1" fill-rule="nonzero"/><path fill="#100f0d" d="M 403.238281 527.289062 C 400.339844 527.289062 397.984375 529.640625 397.984375 532.535156 C 397.984375 535.433594 400.339844 537.792969 403.238281 537.792969 C 406.136719 537.792969 408.492188 535.433594 408.492188 532.535156 C 408.492188 529.640625 406.136719 527.289062 403.238281 527.289062 Z M 403.238281 550.832031 C 393.144531 550.832031 384.9375 542.625 384.9375 532.535156 C 384.9375 522.445312 393.144531 514.238281 403.238281 514.238281 C 413.328125 514.238281 421.539062 522.445312 421.539062 532.535156 C 421.539062 542.625 413.328125 550.832031 403.238281 550.832031 " fill-opacity="1" fill-rule="nonzero"/><g clip-path="url(#64e621b7bc)"><path fill="#100f0d" d="M 437.484375 307.113281 C 436.355469 307.113281 435.226562 306.824219 434.21875 306.242188 C 432.203125 305.074219 430.960938 302.917969 430.960938 300.589844 L 430.960938 29.625 C 430.960938 26.023438 433.882812 23.101562 437.484375 23.101562 C 474.933594 23.101562 511.285156 30.449219 545.539062 44.929688 C 578.597656 58.910156 608.277344 78.90625 633.75 104.378906 C 651.007812 121.625 665.863281 140.953125 677.914062 161.820312 C 679.710938 164.941406 678.644531 168.929688 675.527344 170.730469 L 548.351562 244.136719 C 545.234375 245.9375 541.246094 244.863281 539.441406 241.746094 C 537.640625 238.628906 538.707031 234.640625 541.828125 232.835938 L 663.277344 162.738281 C 652.429688 144.992188 639.414062 128.488281 624.523438 113.605469 C 600.246094 89.324219 571.957031 70.261719 540.453125 56.945312 C 509.816406 43.988281 477.398438 37.027344 444.007812 36.230469 L 444.007812 289.292969 L 458.375 281.007812 C 461.492188 279.203125 465.480469 280.277344 467.285156 283.394531 C 469.082031 286.511719 468.015625 290.5 464.894531 292.304688 L 440.742188 306.242188 C 439.730469 306.824219 438.609375 307.113281 437.484375 307.113281 " fill-opacity="1" fill-rule="nonzero"/></g><path fill="#100f0d" d="M 437.484375 307.113281 C 436.355469 307.113281 435.226562 306.824219 434.21875 306.242188 C 432.203125 305.074219 430.960938 302.917969 430.960938 300.589844 L 430.960938 69.765625 C 430.960938 66.167969 433.882812 63.242188 437.484375 63.242188 C 479.898438 63.242188 521.523438 74.5625 557.867188 95.976562 C 593.136719 116.757812 622.621094 146.46875 643.117188 181.898438 C 643.988281 183.394531 644.226562 185.175781 643.777344 186.84375 C 643.328125 188.519531 642.234375 189.949219 640.738281 190.8125 L 548.351562 244.136719 C 545.234375 245.9375 541.246094 244.863281 539.441406 241.746094 C 537.640625 238.628906 538.707031 234.640625 541.828125 232.835938 L 628.476562 182.828125 C 588.875 118.789062 519.199219 78.589844 444.007812 76.386719 L 444.007812 289.292969 L 458.375 281.007812 C 461.492188 279.203125 465.480469 280.277344 467.285156 283.394531 C 469.082031 286.511719 468.015625 290.5 464.894531 292.304688 L 440.742188 306.242188 C 439.730469 306.824219 438.609375 307.113281 437.484375 307.113281 " fill-opacity="1" fill-rule="nonzero"/><g clip-path="url(#32629fc5bc)"><path fill="#100f0d" d="M 437.484375 307.117188 C 433.882812 307.117188 430.960938 304.199219 430.960938 300.589844 L 430.960938 29.625 C 430.960938 26.023438 433.882812 23.105469 437.484375 23.105469 C 441.085938 23.105469 444.007812 26.023438 444.007812 29.625 L 444.007812 300.589844 C 444.007812 304.199219 441.085938 307.117188 437.484375 307.117188 " fill-opacity="1" fill-rule="nonzero"/></g><path fill="#100f0d" d="M 437.488281 307.117188 C 435.234375 307.117188 433.039062 305.945312 431.832031 303.855469 C 430.03125 300.730469 431.101562 296.742188 434.21875 294.945312 L 458.375 281.007812 C 461.492188 279.203125 465.480469 280.277344 467.285156 283.394531 C 469.082031 286.511719 468.015625 290.5 464.894531 292.304688 L 440.742188 306.242188 C 439.71875 306.832031 438.59375 307.117188 437.488281 307.117188 " fill-opacity="1" fill-rule="nonzero"/><path fill="#100f0d" d="M 545.097656 245.007812 C 542.84375 245.007812 540.648438 243.839844 539.441406 241.746094 C 537.640625 238.628906 538.707031 234.640625 541.828125 232.835938 L 669 159.433594 C 672.121094 157.632812 676.109375 158.703125 677.914062 161.820312 C 679.710938 164.9375 678.644531 168.929688 675.527344 170.730469 L 548.351562 244.136719 C 547.324219 244.730469 546.203125 245.007812 545.097656 245.007812 " fill-opacity="1" fill-rule="nonzero"/><path fill="#100f0d" d="M 486.699219 195.792969 C 478.777344 195.792969 472.34375 202.226562 472.34375 210.144531 C 472.34375 218.054688 478.777344 224.496094 486.699219 224.496094 C 494.613281 224.496094 501.046875 218.054688 501.046875 210.144531 C 501.046875 202.226562 494.613281 195.792969 486.699219 195.792969 Z M 486.699219 237.539062 C 471.585938 237.539062 459.289062 225.246094 459.289062 210.144531 C 459.289062 195.035156 471.585938 182.746094 486.699219 182.746094 C 501.804688 182.746094 514.097656 195.035156 514.097656 210.144531 C 514.097656 225.246094 501.804688 237.539062 486.699219 237.539062 " fill-opacity="1" fill-rule="nonzero"/><path fill="#100f0d" d="M 477.636719 112.832031 C 474.738281 112.832031 472.378906 115.191406 472.378906 118.085938 C 472.378906 120.980469 474.738281 123.335938 477.636719 123.335938 C 480.53125 123.335938 482.886719 120.980469 482.886719 118.085938 C 482.886719 115.191406 480.53125 112.832031 477.636719 112.832031 Z M 477.636719 136.382812 C 467.542969 136.382812 459.335938 128.171875 459.335938 118.085938 C 459.335938 107.996094 467.542969 99.792969 477.636719 99.792969 C 487.730469 99.792969 495.9375 107.996094 495.9375 118.085938 C 495.9375 128.171875 487.730469 136.382812 477.636719 136.382812 " fill-opacity="1" fill-rule="nonzero"/><path fill="#100f0d" d="M 556.867188 180.707031 C 553.972656 180.707031 551.617188 183.0625 551.617188 185.953125 C 551.617188 188.855469 553.972656 191.210938 556.867188 191.210938 C 559.765625 191.210938 562.125 188.855469 562.125 185.953125 C 562.125 183.0625 559.765625 180.707031 556.867188 180.707031 Z M 556.867188 204.25 C 546.777344 204.25 538.5625 196.042969 538.5625 185.953125 C 538.5625 175.871094 546.777344 167.65625 556.867188 167.65625 C 566.960938 167.65625 575.171875 175.871094 575.171875 185.953125 C 575.171875 196.042969 566.960938 204.25 556.867188 204.25 " fill-opacity="1" fill-rule="nonzero"/><path fill="#100f0d" d="M 480.707031 349.453125 C 466.59375 349.453125 455.109375 337.972656 455.109375 323.867188 L 455.109375 284.597656 C 455.109375 280.988281 458.03125 278.070312 461.632812 278.070312 C 465.234375 278.070312 468.15625 280.988281 468.15625 284.597656 L 468.15625 323.867188 C 468.15625 330.78125 473.785156 336.410156 480.707031 336.410156 C 487.621094 336.410156 493.253906 330.78125 493.253906 323.867188 L 493.253906 319.660156 C 493.253906 305.550781 504.738281 294.070312 518.84375 294.070312 L 526.019531 294.070312 C 532.9375 294.070312 538.5625 288.445312 538.5625 281.527344 L 538.5625 238.484375 C 538.5625 234.882812 541.484375 231.960938 545.09375 231.960938 C 548.695312 231.960938 551.617188 234.882812 551.617188 238.484375 L 551.617188 281.527344 C 551.617188 295.636719 540.132812 307.117188 526.019531 307.117188 L 518.84375 307.117188 C 511.929688 307.117188 506.300781 312.742188 506.300781 319.660156 L 506.300781 323.867188 C 506.300781 337.972656 494.820312 349.453125 480.707031 349.453125 " fill-opacity="1" fill-rule="nonzero"/></svg>